<svg xmlns="http://www.w3.org/2000/svg" viewBox="0 0 220 280" role="img" aria-labelledby="title-c01 desc-c01">
<title id="title-c01">Alex — c01</title>
<desc id="desc-c01">Cheveux : noir ; longueur : court ; sans lunettes ; peau claire ; Homme ; sans boucles d’oreilles ; sans piercing ; vêtement : tshirt ; yeux marron ; Jeune ; pilosité : aucune.</desc>
<rect width="220" height="280" rx="18" fill="#f4efe7"/>

<path d="M92 153 V186 Q110 203 128 186 V153" fill="#f3c9a9" stroke="#34333b" stroke-width="2"/>
<path d="M83 181 L63 185 L29 204 L23 239 L197 239 L191 204 L157 185 L137 181Z" fill="#6894c8" stroke="#34333b" stroke-width="2" stroke-linejoin="round"/><path d="M84 182 Q110 207 136 182 M44 197 L54 218 M176 197 L166 218" fill="none" stroke="#34333b" stroke-width="2" stroke-linejoin="round"/>
<g fill="#f3c9a9" stroke="#34333b" stroke-width="2"><ellipse cx="64" cy="109" rx="10" ry="17"/><ellipse cx="156" cy="109" rx="10" ry="17"/><ellipse cx="110" cy="109" rx="45" ry="58"/></g>
<path d="M65 86 Q62 36 110 36 Q158 36 155 87 L143 76 L138 58 Q111 82 78 70 L76 88Z" fill="#24242b" stroke="#34333b" stroke-width="2"/>

<g fill="#fffaf1" stroke="#34333b" stroke-width="1.5"><ellipse cx="90" cy="112" rx="11" ry="8"/><ellipse cx="130" cy="112" rx="11" ry="8"/></g>
<g fill="#75452c" stroke="#34333b" stroke-width="1"><circle cx="90" cy="112" r="6"/><circle cx="130" cy="112" r="6"/></g>
<g fill="#20242c"><circle cx="90" cy="112" r="2"/><circle cx="130" cy="112" r="2"/></g>
<path d="M109 113 L105 129 L114 129 M99 141 Q110 147 121 141" fill="none" stroke="#34333b" stroke-width="2" stroke-linecap="round"/>




<text x="110" y="258" text-anchor="middle" font-family="sans-serif" font-size="18" font-weight="700" fill="#252937">Alex</text>
<text x="110" y="275" text-anchor="middle" font-family="sans-serif" font-size="12" fill="#45434a">Homme · Jeune</text>
</svg>
