<svg xmlns="http://www.w3.org/2000/svg" viewBox="0 0 220 280" role="img" aria-labelledby="title-c23 desc-c23">
<title id="title-c23">Jamie — c23</title>
<desc id="desc-c23">Cheveux : blond ; longueur : long ; sans lunettes ; peau intermediaire ; Femme ; avec boucles d’oreilles ; sans piercing ; vêtement : pull ; yeux vert ; Vieux ; pilosité : les_deux.</desc>
<rect width="220" height="280" rx="18" fill="#f4efe7"/>
<path d="M54 86 Q52 32 110 32 Q168 32 166 86 L177 201 Q154 213 142 195 L78 195 Q62 213 43 201Z" fill="#e8be58" stroke="#34333b" stroke-width="2"/>
<path d="M92 153 V186 Q110 203 128 186 V153" fill="#c48a61" stroke="#34333b" stroke-width="2"/>
<path d="M83 181 L63 185 L29 204 L23 239 L197 239 L191 204 L157 185 L137 181Z" fill="#4d9b85" stroke="#34333b" stroke-width="2" stroke-linejoin="round"/><rect x="83" y="175" width="54" height="23" rx="5" fill="#4d9b85" stroke="#34333b" stroke-width="2" stroke-linejoin="round"/><path d="M89 179 V193 M99 179 V193 M109 179 V193 M119 179 V193 M129 179 V193 M70 210 L79 217 L70 224 L79 231 M141 210 L150 217 L141 224 L150 231" fill="none" stroke="#245a4b" stroke-width="2"/>
<g fill="#c48a61" stroke="#34333b" stroke-width="2"><ellipse cx="64" cy="109" rx="10" ry="17"/><ellipse cx="156" cy="109" rx="10" ry="17"/><ellipse cx="110" cy="109" rx="45" ry="58"/></g>
<path d="M65 86 Q62 36 110 36 Q158 36 155 87 L143 76 L138 58 Q111 82 78 70 L76 88Z" fill="#e8be58" stroke="#34333b" stroke-width="2"/>
<path d="M91 81 Q110 76 129 81 M94 87 Q110 83 126 87 M77 119 L85 121 M143 119 L135 121 M90 146 L94 140 M130 146 L126 140" fill="none" stroke="#493c36" stroke-width="1.5"/>
<g fill="#fffaf1" stroke="#34333b" stroke-width="1.5"><ellipse cx="90" cy="112" rx="11" ry="8"/><ellipse cx="130" cy="112" rx="11" ry="8"/></g>
<g fill="#38794a" stroke="#34333b" stroke-width="1"><circle cx="90" cy="112" r="6"/><circle cx="130" cy="112" r="6"/></g>
<g fill="#20242c"><circle cx="90" cy="112" r="2"/><circle cx="130" cy="112" r="2"/></g>
<path d="M109 113 L105 129 L114 129 M99 141 Q110 147 121 141" fill="none" stroke="#34333b" stroke-width="2" stroke-linecap="round"/>
<path d="M77 135 Q79 164 110 175 Q141 164 143 135 L132 145 Q110 159 88 145Z" fill="#e8be58" stroke="#34333b" stroke-width="2"/><path d="M110 126 Q96 120 88 134 Q99 139 110 132 Q121 139 132 134 Q124 120 110 126Z" fill="#e8be58" stroke="#34333b" stroke-width="2"/>

<g fill="#efbc49" stroke="#34333b" stroke-width="2"><circle cx="58" cy="124" r="7"/><circle cx="162" cy="124" r="7"/><circle cx="58" cy="124" r="3" fill="none"/><circle cx="162" cy="124" r="3" fill="none"/></g>

<text x="110" y="258" text-anchor="middle" font-family="sans-serif" font-size="18" font-weight="700" fill="#252937">Jamie</text>
<text x="110" y="275" text-anchor="middle" font-family="sans-serif" font-size="12" fill="#45434a">Femme · Vieux</text>
</svg>
